<svg id="Layer_1" data-name="Layer 1" xmlns="http://www.w3.org/2000/svg" xmlns:xlink="http://www.w3.org/1999/xlink" viewBox="0 0 40 40">
  <defs>
    <style>
      .cls-1 {
        fill: none;
      }

      .cls-2 {
        clip-path: url(#clip-path);
      }

      .cls-3 {
        fill: #86e2d5;
      }

      .cls-4 {
        fill: #f6c700;
      }

      .cls-5 {
        fill: #44403e;
      }

      .cls-6 {
        fill: #f86221;
      }

      .cls-7 {
        fill: #eb5d1f;
      }

      .cls-8 {
        fill: #e8bc00;
      }

      .cls-9 {
        fill: #3d3a38;
      }

      .cls-10 {
        fill: #6c707e;
      }

      .cls-11 {
        fill: #c74d56;
      }

      .cls-12 {
        fill: #626673;
      }

      .cls-13 {
        fill: #e0c199;
      }

      .cls-14 {
        fill: #f8d5a8;
      }

      .cls-15 {
        fill: #4a4d57;
      }

      .cls-16 {
        fill: #fffeff;
      }

      .cls-17 {
        fill: #d5525c;
      }

      .cls-18 {
        font-size: 2.85px;
      }

      .cls-18, .cls-19, .cls-20 {
        font-family: Montserrat-Regular, Montserrat;
      }

      .cls-19 {
        font-size: 2.86px;
      }

      .cls-20 {
        font-size: 2.84px;
      }
    </style>
    <clipPath id="clip-path">
      <rect class="cls-1" x="-2" y="-0.54" width="43.54" height="43.54"/>
    </clipPath>
  </defs>
  <title>3-STEP-Final-402-01</title>
  <g>
    <g class="cls-2">
      <polygon class="cls-3" points="18.54 24.39 17.83 24.23 13.91 41.43 15.59 41.81 18.54 24.39"/>
      <path class="cls-4" d="M18.54,24.4a9.59,9.59,0,0,1-1.25,2.33,9.59,9.59,0,0,1-.11-2.64c.19-.85.65-1.46,1-1.38S18.73,23.55,18.54,24.4Z"/>
      <path class="cls-4" d="M18.54,24.4a9.59,9.59,0,0,1-1.25,2.33,9.59,9.59,0,0,1-.11-2.64c.19-.85.65-1.46,1-1.38S18.73,23.55,18.54,24.4Z"/>
      <path class="cls-4" d="M18.79,23.32a9.59,9.59,0,0,1-1.25,2.33A9.59,9.59,0,0,1,17.43,23c.19-.85.65-1.46,1-1.38S19,22.47,18.79,23.32Z"/>
      <path class="cls-5" d="M17.11,23.79l.06.29a3.21,3.21,0,0,0,1.37.31l.18-.24A4.43,4.43,0,0,1,17.11,23.79Z"/>
      <path class="cls-6" d="M16.92,22.88l.19.91a4.43,4.43,0,0,0,1.61.37l.57-.74Z"/>
      <path class="cls-6" d="M19.29,23.42a4.17,4.17,0,0,1-2.37-.54l1.69-7.42L21,16Z"/>
      <path class="cls-6" d="M20.56,15.89l-1.72,7.56c.26,0,.44,0,.46,0L21,16Z"/>
      <path class="cls-4" d="M19.94,14.54l-1.33.91c-.08.36,2.29.9,2.37.54l-.8-1.4A.17.17,0,0,0,19.94,14.54Z"/>
      <path class="cls-4" d="M19.91,14.75l-1.11.93a2.25,2.25,0,0,0,.34.15Z"/>
      <polygon class="cls-6" points="17.39 22.67 17.39 22.67 18.81 15.68 19.15 15.83 17.39 22.67"/>
      <rect class="cls-4" x="21.2" y="17.31" width="3.63" height="5.84" transform="translate(-1.82 38.18) rotate(-77.17)"/>
      <polygon class="cls-3" points="26.45 26.19 25.74 26.03 21.82 43.23 23.49 43.61 26.45 26.19"/>
      <path class="cls-4" d="M26.44,26.2a9.59,9.59,0,0,1-1.25,2.33,9.59,9.59,0,0,1-.11-2.64c.19-.85.65-1.46,1-1.38S26.63,25.35,26.44,26.2Z"/>
      <path class="cls-4" d="M26.44,26.2a9.59,9.59,0,0,1-1.25,2.33,9.59,9.59,0,0,1-.11-2.64c.19-.85.65-1.46,1-1.38S26.63,25.35,26.44,26.2Z"/>
      <path class="cls-4" d="M26.68,25.12a9.59,9.59,0,0,1-1.25,2.33,9.59,9.59,0,0,1-.11-2.64c.19-.85.65-1.46,1-1.38S26.87,24.27,26.68,25.12Z"/>
      <path class="cls-5" d="M25,25.59l.06.29a3.21,3.21,0,0,0,1.37.31l.18-.24A4.43,4.43,0,0,1,25,25.59Z"/>
      <path class="cls-7" d="M24.82,24.68l.19.91a4.43,4.43,0,0,0,1.61.37l.57-.74Z"/>
      <path class="cls-7" d="M26.51,17.24l-1.68,7.44c0,.17,1.35.47,2.12.53l1.7-7.58Z"/>
      <polygon class="cls-7" points="25.28 24.48 25.28 24.48 26.7 17.48 27.05 17.64 25.28 24.48"/>
      <path class="cls-7" d="M28.45,17.69l-1.72,7.56c.26,0,.44,0,.46,0l1.69-7.42Z"/>
      <path class="cls-8" d="M27.84,16.34l-1.33.91c-.08.36,2.29.9,2.37.54l-.8-1.4A.17.17,0,0,0,27.84,16.34Z"/>
      <path class="cls-8" d="M27.81,16.55l-1.11.93a2.26,2.26,0,0,0,.34.15Z"/>
      <path class="cls-9" d="M23.48,23.19l-1.41,6.25h0a1,1,0,0,0,1.24-.79l1-4.21A1,1,0,0,0,23.48,23.19Z"/>
      <path class="cls-9" d="M23.56,23.21a1,1,0,0,0-1.25.79l-1,4.21a1,1,0,0,0,.79,1.25h0l1.41-6.25Z"/>
      <path class="cls-9" d="M21,22.64,19.6,28.9a1,1,0,0,0,1.24-.79l1-4.21A1,1,0,0,0,21,22.64Z"/>
      <path class="cls-9" d="M21.08,22.65a1,1,0,0,0-1.25.79l-1,4.21a1,1,0,0,0,.79,1.25h0l1.41-6.25Z"/>
      <path class="cls-10" d="M19,22.13l-.11,0a.73.73,0,0,1-.41-1l.11-.93a.7.7,0,0,1,.25-.47h0L21.09,18a1.81,1.81,0,0,1,1.59-.08c.37.09.42.36.12.6L20,20.63a.51.51,0,0,0-.2.37l0,.69A.73.73,0,0,1,19,22.13Z"/>
      <path class="cls-11" d="M19.26,22.83a.38.38,0,0,1-.58-.13c0-.06.05-.23.05-.23l.58.13S19.3,22.79,19.26,22.83Z"/>
      <rect class="cls-5" x="22.55" y="18.38" width="1.65" height="1.8" transform="translate(-0.62 37.79) rotate(-77.17)"/>
      <path class="cls-12" d="M25.42,20a1.45,1.45,0,0,0-1.09-1.74l-1.27.48-1.31,5.75L24,25a.26.26,0,0,0,.32-.2Z"/>
      <path class="cls-10" d="M22.36,17.81a1.45,1.45,0,0,0-1.74,1.09l-1.1,4.81a.26.26,0,0,0,.2.32l2.2.5,1.31-5.75Z"/>
      <path class="cls-12" d="M28.46,14.54l.11,0a.73.73,0,0,1,.41,1l-1,2.55a1.54,1.54,0,0,1-.22.38,14.27,14.27,0,0,1-2.36,2.45c-.2.16-.22.3-.33.72-.37-.09-1.5-3.56-.59-3.35l.86.19c.41.09.94-.56,1.18-.89a1.68,1.68,0,0,0,.2-.36L27.62,15A.73.73,0,0,1,28.46,14.54Z"/>
      <rect class="cls-13" x="22.75" y="17.24" width="1.28" height="1.74" transform="translate(0.54 36.9) rotate(-77.17)"/>
      <circle class="cls-14" cx="28.55" cy="14.91" r="0.83" transform="translate(7.67 39.43) rotate(-77.17)"/>
      <path class="cls-14" d="M21.73,14.82a2.46,2.46,0,0,0,1.82,2.94L24.65,13A2.46,2.46,0,0,0,21.73,14.82Z"/>
      <path class="cls-14" d="M24.56,12.94h0l-1.09,4.79h0a2.46,2.46,0,1,0,1.09-4.79Z"/>
      <path class="cls-5" d="M26.86,14.88a2.07,2.07,0,0,0-.34-1l-.23-.34a2.21,2.21,0,0,0-.47-.51l-.34-.27a1.22,1.22,0,0,0-.48-.23h0l-.51-.12.14,0a2.06,2.06,0,0,0-.9,0l-.28.06-.29.09-.28.13-.53.31a1.41,1.41,0,0,0-.5.5l-.16.28a1.34,1.34,0,0,0-.19.69v.87a1.2,1.2,0,0,0,.06.37l.19.58.19-1.06.24-.93.34.68.51-.81,2.22,1.7.36-.31v.12l.61-.47-.19.95-.29,1,.39-.4a1.52,1.52,0,0,0,.28-.39l.39-.79a1.13,1.13,0,0,0,.11-.59Z"/>
      <circle class="cls-15" cx="23.09" cy="21.39" r="0.19" transform="translate(-2.89 39.15) rotate(-77.17)"/>
      <circle class="cls-15" cx="22.83" cy="22.52" r="0.19" transform="translate(-4.2 39.78) rotate(-77.17)"/>
      <circle class="cls-15" cx="22.57" cy="23.66" r="0.19" transform="translate(-5.51 40.41) rotate(-77.17)"/>
      <rect class="cls-12" x="21.2" y="19.91" width="0.59" height="1.11" transform="translate(-3.23 36.88) rotate(-77.17)"/>
      <polygon class="cls-16" points="22.55 17.82 22.55 17.82 22.55 17.82 22.55 17.82"/>
      <path class="cls-16" d="M24.25,18.24l-.83,1.24a2.11,2.11,0,0,0-.07-.46l0-.18.29-.32.34-.36Z"/>
      <path class="cls-16" d="M23.2,18.82l-.12.14a2.06,2.06,0,0,0-.3.45h0l-.22-1.56.37.09.15.47Z"/>
      <polygon class="cls-11" points="23.43 18.06 23.27 18.75 23.2 18.82 23.08 18.41 22.93 17.94 23.43 18.06"/>
      <polygon class="cls-11" points="23.93 18.17 23.59 18.53 23.3 18.84 23.27 18.75 23.43 18.06 23.93 18.17"/>
      <path class="cls-11" d="M23.23,18.92l0-.09-.12.14a2.06,2.06,0,0,0-.3.45h0l.12.85,0-.06Z"/>
      <polygon class="cls-17" points="23.2 18.82 23.23 18.92 23.27 18.75 23.2 18.82"/>
      <path class="cls-11" d="M23.3,18.85l-.07.07-.29,1.29.48-.72a2.13,2.13,0,0,0-.07-.46Z"/>
      <polygon class="cls-11" points="23.27 18.75 23.23 18.92 23.3 18.85 23.27 18.75"/>
      <polygon class="cls-12" points="22.9 20.27 22.68 21.21 21.99 19.01 22.47 18.96 21.95 18.75 22.17 17.77 22.56 17.86 22.78 19.42 22.9 20.27"/>
      <polygon class="cls-10" points="24.41 19.31 23.85 19.27 24.26 19.53 22.68 21.21 22.9 20.27 22.94 20.21 23.43 19.51 24.3 18.25 24.64 18.33 24.41 19.31"/>
      <polygon class="cls-10" points="22.68 21.21 22.68 21.21 22.68 21.21 22.68 21.21"/>
      <path class="cls-10" d="M24.3,18.25l-.88,1.26v0l.83-1.24Z"/>
      <polygon class="cls-10" points="22.9 20.27 23.43 19.51 22.94 20.21 22.9 20.27"/>
      <polygon class="cls-10" points="22.94 20.2 22.9 20.27 22.94 20.21 22.94 20.2"/>
      <path class="cls-10" d="M22.94,20.2h0l.49-.7v0Z"/>
      <polygon class="cls-10" points="22.68 21.21 22.68 21.21 22.68 21.21 22.9 20.27 22.68 21.21"/>
      <g>
        <path class="cls-14" d="M28.26,14.78c0,.07-.13.1-.24.06h0c-.1,0-.17-.13-.14-.2l.19-.56a.19.19,0,0,1,.28-.13h0c.1,0,.17.13.14.2Z"/>
        <path class="cls-14" d="M28.27,14.28c-.05-.1-.13-.16-.18-.14l-.28.14a.37.37,0,0,0-.14.44l.07.32c0,.06.11.08.22.06s.19-.09.18-.14l-.07-.34.21-.1C28.32,14.49,28.32,14.39,28.27,14.28Z"/>
        <path class="cls-14" d="M28.67,14.84c0,.07-.14.1-.25.06h0c-.11,0-.17-.13-.15-.21l.18-.61a.27.27,0,0,1,.3-.09h0c.11,0,.21.18.18.26Z"/>
        <path class="cls-14" d="M29,15a.17.17,0,0,1-.22.07h0a.17.17,0,0,1-.12-.19l.23-.63a.17.17,0,0,1,.22-.07h0a.24.24,0,0,1,.15.27Z"/>
        <path class="cls-14" d="M29.27,15.31a.17.17,0,0,1-.23.07h0c-.1,0-.16-.13-.13-.2l.23-.63c0-.07.06-.14.19-.09s.16.28.13.35Z"/>
      </g>
      <g>
        <circle class="cls-14" cx="19.03" cy="21.8" r="0.83" transform="translate(-5.51 37.13) rotate(-80.87)"/>
        <g>
          <path class="cls-14" d="M19.14,21.5c-.07,0-.11-.13-.08-.23h0c0-.11.12-.18.19-.15l.57.16a.19.19,0,0,1,.15.27h0c0,.11-.12.18-.19.15Z"/>
          <path class="cls-14" d="M19.64,21.48c.1-.06.15-.14.12-.19L19.61,21a.37.37,0,0,0-.45-.11l-.31.09c-.05,0-.07.12,0,.22s.1.18.15.17l.33-.1.11.2S19.54,21.54,19.64,21.48Z"/>
          <path class="cls-14" d="M19.1,21.92c-.08,0-.11-.13-.08-.24h0c0-.11.12-.18.2-.16l.62.14A.27.27,0,0,1,20,22h0c0,.11-.17.22-.24.2Z"/>
          <path class="cls-14" d="M18.92,22.22a.17.17,0,0,1-.08-.21h0a.17.17,0,0,1,.19-.14l.64.19a.17.17,0,0,1,.08.21h0a.24.24,0,0,1-.26.17Z"/>
          <path class="cls-14" d="M18.67,22.55a.17.17,0,0,1-.08-.22h0c0-.1.11-.17.19-.15l.64.19c.07,0,.14,0,.1.18s-.27.17-.34.15Z"/>
        </g>
      </g>
      <path class="cls-11" d="M19.59,21.36a.64.64,0,0,1-.58-.13l0-.16.58.13Z"/>
      <ellipse class="cls-17" cx="19.34" cy="21.14" rx="0.11" ry="0.3" transform="translate(-5.56 35.3) rotate(-77.17)"/>
      <polygon class="cls-12" points="20.27 20.45 20.61 20.18 20.08 21.26 20.27 20.45"/>
      <circle class="cls-3" cx="22.91" cy="41.69" r="3.29" transform="translate(-22.83 54.76) rotate(-77.17)"/>
      <path class="cls-3" d="M14.86,38.27a5.2,5.2,0,0,1-9.8,1,5.2,5.2,0,0,1,9.68-3.78A5.18,5.18,0,0,1,14.86,38.27Z"/>
      <path class="cls-3" d="M21.41,41.35a2.12,2.12,0,1,1,0-1A2.37,2.37,0,0,1,21.41,41.35Z"/>
      <circle class="cls-3" cx="14.9" cy="39.23" r="3.18" transform="translate(-26.65 45.04) rotate(-77.17)"/>
      <circle class="cls-3" cx="28.33" cy="41.14" r="4.08" transform="translate(-18.07 59.62) rotate(-77.17)"/>
      <path d="M8.84,5.15l-.05,0a.07.07,0,0,1,0-.1A15.18,15.18,0,0,1,23,1.82.07.07,0,1,1,23,2,15,15,0,0,0,8.89,5.13Z"/>
      <path d="M5.2,21.08A.07.07,0,0,1,5.13,21,15.27,15.27,0,0,1,4.82,18a15,15,0,0,1,1.55-6.69.07.07,0,0,1,.13.06A14.86,14.86,0,0,0,5,18a15.11,15.11,0,0,0,.31,3,.07.07,0,0,1-.06.09Z"/>
      <path d="M5.44,11.8l.93-.67a.13.13,0,0,1,.2.09l.15,1.13a.17.17,0,0,1,0,0,.14.14,0,0,1-.25,0A.9.9,0,0,0,5.55,12a.14.14,0,0,1-.11-.24Z"/>
      <path d="M22.22,1l.83.79a.13.13,0,0,1,0,.22l-1.09.36h0a.14.14,0,0,1-.09-.23.9.9,0,0,0,.23-1A.14.14,0,0,1,22.22,1Z"/>
    </g>
    <g>
      <circle class="cls-4" cx="6.12" cy="24.51" r="2"/>
      <text class="cls-18" transform="translate(5.35 25.62)">1</text>
    </g>
    <g>
      <circle class="cls-4" cx="7.54" cy="8.12" r="2.01"/>
      <text class="cls-19" transform="translate(6.73 9.01)">2</text>
    </g>
    <g>
      <circle class="cls-4" cx="26.33" cy="2.26" r="2"/>
      <text class="cls-20" transform="translate(25.58 3.21)">3</text>
    </g>
  </g>
</svg>
