<svg id="Layer_1" data-name="Layer 1" xmlns="http://www.w3.org/2000/svg" viewBox="0 0 40 40">
  <defs>
    <style>
      .cls-1 {
        fill: #ffd311;
      }

      .cls-2 {
        fill: #595e62;
      }

      .cls-3 {
        fill: #afb6bb;
      }

      .cls-4 {
        fill: #7e8488;
      }

      .cls-5 {
        fill: #4b5054;
      }

      .cls-6 {
        fill: #989ea3;
      }

      .cls-7 {
        fill: #fff;
      }

      .cls-8 {
        font-size: 2.46px;
        fill: #232323;
        font-family: Montserrat-Regular, Montserrat;
      }

      .cls-9 {
        letter-spacing: -0.02em;
      }

      .cls-10 {
        fill: #404041;
      }

      .cls-11 {
        fill: #2c2a2b;
      }

      .cls-12 {
        fill: #e6e7e8;
      }

      .cls-13 {
        fill: #bbbdc0;
      }

      .cls-14 {
        fill: #067f76;
      }

      .cls-15 {
        fill: #0c938c;
      }

      .cls-16 {
        fill: #323132;
      }

      .cls-17 {
        fill: #565656;
      }

      .cls-18 {
        fill: #025e55;
      }

      .cls-19, .cls-25 {
        fill: none;
      }

      .cls-19 {
        stroke: #565656;
        stroke-linecap: round;
        stroke-linejoin: round;
        stroke-width: 0.5px;
      }

      .cls-20 {
        fill: #ed670c;
      }

      .cls-21 {
        fill: #f4c5a0;
      }

      .cls-22 {
        fill: #f1af8e;
      }

      .cls-23 {
        fill: #f1f1f2;
      }

      .cls-24 {
        fill: #0033a0;
      }

      .cls-25 {
        stroke: #f4c69f;
        stroke-miterlimit: 10;
      }

      .cls-26 {
        fill: #898790;
      }

      .cls-27 {
        fill: #9e9da3;
      }

      .cls-28 {
        fill: #73717c;
      }

      .cls-29 {
        fill: #86858e;
      }

      .cls-30 {
        fill: #b2aeaa;
      }

      .cls-31 {
        fill: #d3cecb;
      }

      .cls-32 {
        fill: #a09a95;
      }
    </style>
  </defs>
  <title>trusted mechanics</title>
  <rect class="cls-1" x="10.37" y="8.8" width="15.76" height="4.98"/>
  <polygon class="cls-2" points="6.64 17.1 6.64 32.44 6.64 36.18 29.86 36.18 29.86 32.44 29.86 17.1 6.64 17.1"/>
  <polygon class="cls-3" points="34.01 36.18 29.86 36.18 29.86 32.44 29.86 17.1 6.64 17.1 6.64 32.44 6.64 36.18 2.49 36.18 2.49 8.8 10.37 8.8 10.37 13.78 26.13 13.78 26.13 8.8 34.01 8.8 34.01 36.18"/>
  <polygon class="cls-4" points="35.67 5.49 35.67 8.8 34.01 8.8 26.13 8.8 10.37 8.8 2.49 8.8 0.83 8.8 0.83 5.49 35.67 5.49"/>
  <path class="cls-5" d="M14.42,17.1H6.64V36.18H29.86V33.31A27.42,27.42,0,0,1,14.42,17.1Z"/>
  <polygon class="cls-6" points="10.37 13.78 10.37 8.8 2.49 8.8 2.49 36.18 6.64 36.18 6.64 32.44 6.64 17.1 18.25 17.1 18.25 13.78 10.37 13.78"/>
  <g>
    <rect class="cls-7" x="8.71" y="26.01" width="19.08" height="1.24"/>
    <rect class="cls-7" x="8.71" y="23.11" width="19.08" height="1.24"/>
    <rect class="cls-7" x="8.71" y="20.21" width="19.08" height="1.24"/>
    <rect class="cls-7" x="8.71" y="31.82" width="19.08" height="1.24"/>
    <rect class="cls-7" x="8.71" y="28.92" width="19.08" height="1.24"/>
  </g>
  <rect class="cls-4" x="0.42" y="36.18" width="34.84" height="0.87"/>
  <text class="cls-8" transform="translate(13.06 11.93)">GAR<tspan class="cls-9" x="5.44" y="0">A</tspan><tspan x="7.22" y="0">GE</tspan></text>
  <g>
    <path class="cls-10" d="M19.44,39.56l-.16,0V35.7h.16Z"/>
    <path class="cls-10" d="M18.3,39.56V35.7h.16v3.88Z"/>
  </g>
  <g>
    <path class="cls-10" d="M34.27,39.56l-.16,0V35.7h.16Z"/>
    <path class="cls-10" d="M33.13,39.56V35.7h.16v3.88Z"/>
  </g>
  <path class="cls-11" d="M20.13,35.83v1.82H17.34V35.83a1.39,1.39,0,0,1,0-.16h2.77A1.39,1.39,0,0,1,20.13,35.83Z"/>
  <path class="cls-11" d="M34.79,35.83v1.82H32V35.83a1.4,1.4,0,0,1,0-.16h2.77A1.4,1.4,0,0,1,34.79,35.83Z"/>
  <rect class="cls-12" x="15.12" y="35.18" width="21.9" height="0.49"/>
  <rect class="cls-13" x="15.12" y="35.18" width="21.9" height="1.97"/>
  <path class="cls-12" d="M37.23,20.76a.07.07,0,0,1,0-.1h0a.07.07,0,0,1,.1,0L39,23.41a.07.07,0,0,1,0,.1h0a.07.07,0,0,1-.1,0Z"/>
  <path class="cls-11" d="M39.64,24.07a.28.28,0,0,1-.09.38h0a.28.28,0,0,1-.38-.09l-.66-1.1a.28.28,0,0,1,.09-.39h0A.28.28,0,0,1,39,23Z"/>
  <g>
    <g>
      <polygon class="cls-14" points="35.46 27.5 35.75 28.62 34.33 28.62 34.04 27.5 35.46 27.5"/>
      <polygon class="cls-14" points="33.41 28.24 35.48 28.24 35.75 28.62 33.41 28.62 33.41 28.24"/>
      <polygon class="cls-15" points="34.12 27.78 34.04 27.5 35.46 27.5 35.53 27.78 34.12 27.78"/>
    </g>
    <g>
      <polygon class="cls-14" points="18.12 27.5 17.83 28.62 16.42 28.62 16.71 27.5 18.12 27.5"/>
      <polygon class="cls-15" points="18.05 27.78 18.12 27.5 16.71 27.5 16.63 27.78 18.05 27.78"/>
      <polygon class="cls-14" points="18.76 28.24 16.69 28.24 16.42 28.62 18.76 28.62 18.76 28.24"/>
    </g>
  </g>
  <path class="cls-16" d="M17.34,38.88c0,.77.62,1,1.4,1h0c.77,0,1.39-.23,1.39-1V35.83a1.39,1.39,0,0,0-1.39-1.4h0a1.39,1.39,0,0,0-1.4,1.4Z"/>
  <path class="cls-16" d="M32,38.88c0,.77.62,1,1.39,1h0c.77,0,1.39-.23,1.39-1V35.83a1.39,1.39,0,0,0-1.39-1.4h0A1.39,1.39,0,0,0,32,35.83Z"/>
  <polygon class="cls-15" points="18.33 28.62 26.07 28.62 33.81 28.62 36.07 32.02 36.07 35.43 26.07 35.43 16.07 35.43 16.07 32.02 18.33 28.62"/>
  <polygon class="cls-11" points="19.82 28.62 26.07 28.62 32.32 28.62 34.15 31.37 17.99 31.37 19.82 28.62"/>
  <rect class="cls-14" x="16.07" y="32.02" width="20" height="3.41"/>
  <rect class="cls-1" x="32" y="32.6" width="2.79" height="1.83"/>
  <circle class="cls-12" cx="32.53" cy="33.52" r="1.25"/>
  <polygon class="cls-10" points="20 23.18 32.16 23.18 33.81 28.62 26.78 28.62 25.39 28.62 18.36 28.62 20 23.18"/>
  <polygon class="cls-17" points="23.2 28.62 24.31 28.62 22.59 23 21.49 23 23.2 28.62"/>
  <polygon class="cls-17" points="28.99 28.62 30.95 28.62 29.24 23 27.28 23 28.99 28.62"/>
  <polygon class="cls-17" points="25.62 28.62 28.23 28.62 26.52 23 23.91 23 25.62 28.62"/>
  <polygon class="cls-18" points="30.27 32.6 21.86 32.6 22.58 34.44 29.56 34.44 30.27 32.6"/>
  <rect class="cls-1" x="17.34" y="32.6" width="2.79" height="1.83"/>
  <polygon class="cls-18" points="32.32 28.65 26.07 28.65 19.82 28.65 17.99 25.5 34.15 25.5 32.32 28.65"/>
  <rect class="cls-14" x="17.99" y="25.1" width="16.16" height="0.4"/>
  <rect class="cls-1" x="23.92" y="21.2" width="4.32" height="1.39"/>
  <polygon class="cls-14" points="32.01 22.59 32.16 23.18 20 23.18 20.16 22.59 32.01 22.59"/>
  <rect class="cls-11" x="23.64" y="36.18" width="4.87" height="1.95"/>
  <path class="cls-17" d="M21.91,29.51a.49.49,0,0,0,.49.49h3a.49.49,0,0,0,.49-.49h0a.49.49,0,0,0-.49-.49h-3a.49.49,0,0,0-.49.49Z"/>
  <path class="cls-17" d="M19.89,29.51a.49.49,0,0,0,.49.49h.7a.49.49,0,0,0,.49-.49h0a.49.49,0,0,0-.49-.49h-.7a.49.49,0,0,0-.49.49Z"/>
  <path class="cls-17" d="M26.28,29.51a.49.49,0,0,0,.49.49h.35a.49.49,0,0,0,.49-.49h0a.49.49,0,0,0-.49-.49h-.35a.49.49,0,0,0-.49.49Z"/>
  <path class="cls-17" d="M27.58,30.72a.65.65,0,0,0,.65.65h4.05a.65.65,0,0,0,.65-.65h0a.65.65,0,0,0-.65-.65H28.23a.65.65,0,0,0-.65.65Z"/>
  <ellipse class="cls-11" cx="32.17" cy="30.49" rx="0.32" ry="0.3"/>
  <polyline class="cls-19" points="28.23 30.72 19.96 30.72 20.73 29.51 26.83 29.51"/>
  <circle class="cls-12" cx="19.61" cy="33.52" r="1.25"/>
  <rect class="cls-14" x="25.51" y="32.96" width="1.11" height="1.11"/>
  <path class="cls-20" d="M34.58,33v1h0a.36.36,0,0,0,.35.36h2.65a.36.36,0,0,0,.35-.36h0V33Z"/>
  <polygon class="cls-21" points="37.88 39.58 37.88 34.72 37.19 34.72 37.17 39.58 37.88 39.58"/>
  <path class="cls-16" d="M37.88,39.91v-.54h-.77a.52.52,0,0,0-.51.54Z"/>
  <g>
    <path class="cls-22" d="M38.9,23.49a.37.37,0,0,1,.7.23l-.23.69a.37.37,0,1,1-.7-.23Z"/>
    <path class="cls-22" d="M38.59,23.77a.14.14,0,1,1,.26-.11l.1.25a.14.14,0,0,1-.26.11Z"/>
    <path class="cls-22" d="M36.07,28.07a5.07,5.07,0,0,1,.48.88l.06,0,.22-.18a5.5,5.5,0,0,0,.43-.42c.14-.15.28-.31.41-.48s.25-.35.37-.53a11.89,11.89,0,0,0,1-2.07l.15-.4.11-.31.09-.28-.7-.23-.1.25-.12.29-.16.37c-.12.27-.27.58-.45.9a9.69,9.69,0,0,1-.61,1c-.11.16-.23.31-.35.45s-.24.28-.37.4a4.58,4.58,0,0,1-.37.33Z"/>
    <path class="cls-11" d="M36.8,27.42l.76.75s-1,1.12-1.26,1.33-.48.38-1.1-.37c-.4-.49.71-.94,1.6-1.71"/>
    <path class="cls-7" d="M37.35,28.39l-.79-.77.25-.21.76.75Z"/>
  </g>
  <path class="cls-23" d="M34.75,31.16,34,30.43l.94-1,1.19-.38a4.65,4.65,0,0,1-1.35,2.1"/>
  <path class="cls-24" d="M34.19,30.2l.8.74-.24.22L34,30.43Z"/>
  <polygon class="cls-20" points="37.95 39.07 37.95 32.99 37.05 32.99 37.06 39.07 37.95 39.07"/>
  <rect class="cls-22" x="33.29" y="28.41" width="0.99" height="0.76" transform="matrix(0.85, -0.52, 0.52, 0.85, -10.08, 22.01)"/>
  <path class="cls-22" d="M34.91,24.88a.93.93,0,1,1-1.28-.3.93.93,0,0,1,1.28.3"/>
  <path class="cls-21" d="M30,22.61a2.64,2.64,0,0,0-.86,3.63l1,1.62a2.64,2.64,0,0,0,4.49-2.77l-1-1.62A2.64,2.64,0,0,0,30,22.61"/>
  <path class="cls-11" d="M29.83,26.41c.08.12.23.37,0,.52l-.2.12-.53-.86a.26.26,0,1,1,.44-.27Z"/>
  <path class="cls-11" d="M29.71,25.07c.09.15.28.46,0,.65l-.24.15-.66-1.06a.32.32,0,1,1,.55-.34Z"/>
  <path class="cls-11" d="M32.29,23.47c.09.15.28.46.59.27l.24-.15-.66-1.06a.32.32,0,1,0-.55.34Z"/>
  <path class="cls-11" d="M33.44,24.19c.08.12.23.37.48.22l.2-.12-.53-.86a.26.26,0,1,0-.44.27Z"/>
  <path class="cls-11" d="M30,24.59l1.79-1.1,1.3.07.12.19.44-.27a2.64,2.64,0,0,0-4.49,2.77l.44-.27-.16-.27Z"/>
  <path class="cls-21" d="M29.77,25.17c-.07-.11-.21-.33,0-.47l.18-.11.48.77a.23.23,0,0,1-.4.25Z"/>
  <path class="cls-21" d="M32.35,23.57c-.07-.11-.21-.33-.43-.2l-.18.11.48.77a.23.23,0,0,0,.4-.25Z"/>
  <path class="cls-11" d="M34.39,24.75c.34.55,1,1.66-.08,2.34l-.88.54L32,25.29a1.16,1.16,0,1,1,2-1.22Z"/>
  <path class="cls-11" d="M30.72,27c.34.55,1,1.66,2.13,1l.88-.54-1.44-2.34a1.16,1.16,0,1,0-2,1.22Z"/>
  <rect class="cls-11" x="28.85" y="23.97" width="4.22" height="1.49" transform="translate(-8.37 19.92) rotate(-31.66)"/>
  <rect class="cls-11" x="29.73" y="25.76" width="1.62" height="1.28" transform="matrix(0.85, -0.52, 0.52, 0.85, -9.31, 19.95)"/>
  <path class="cls-21" d="M30.72,27c-.09-.15-.28-.46-.59-.27l-.24.15L30.54,28a.32.32,0,0,0,.55-.34Z"/>
  <rect class="cls-11" x="29.6" y="26.53" width="0.86" height="0.24" transform="translate(-9.52 19.72) rotate(-31.65)"/>
  <path class="cls-22" d="M29.82,26.82a.93.93,0,0,0,1,1.59Z"/>
  <path class="cls-22" d="M30.8,28.41c.19-.11.12-.56-.15-1s-.64-.7-.83-.59Z"/>
  <rect class="cls-20" x="33.03" y="28.82" width="1.71" height="0.33" transform="matrix(0.85, -0.52, 0.52, 0.85, -10.17, 22.1)"/>
  <polygon class="cls-20" points="36.68 29.8 33.38 31.83 33.38 31.83 34.91 33.93 36.65 33.27 37.87 32.11 36.68 29.8"/>
  <path class="cls-11" d="M36.68,29.8,36.25,29a1,1,0,0,0-1.44-.34l-1.64,1a1,1,0,0,0-.34,1.44l.56.77h0Z"/>
  <path class="cls-20" d="M37.86,32.08c.26.52.09.84.09,1.5H36.27Z"/>
  <polygon class="cls-21" points="35.42 39.58 35.42 34.72 34.73 34.72 34.71 39.58 35.42 39.58"/>
  <path class="cls-16" d="M35.42,39.91v-.54h-.77a.52.52,0,0,0-.51.54Z"/>
  <polygon class="cls-20" points="35.48 39.07 35.48 32.99 34.58 32.99 34.59 39.07 35.48 39.07"/>
  <rect class="cls-11" x="28.16" y="25.73" width="1.06" height="0.52" transform="translate(-9.26 18.35) rotate(-30.79)"/>
  <path class="cls-20" d="M29,26.09a2.64,2.64,0,0,1,4.58-2.62S30.47,25.23,29,26.09Z"/>
  <path class="cls-20" d="M30.8,25.06a.94.94,0,0,1,1.63-.94S31.31,24.75,30.8,25.06Z"/>
  <path class="cls-11" d="M30.68,24.73a1,1,0,0,1,.45-.92.94.94,0,0,1,1.06,0C31.93,24,31,24.53,30.68,24.73Z"/>
  <path class="cls-25" d="M33,30.63s-2.13,1-3,.65c-.41-.18.66-2,.66-2"/>
  <g>
    <path class="cls-26" d="M31.15,29.56l.28.12a.46.46,0,0,1,.17-.42l-2-.82a.46.46,0,0,1-.17.42L31,29.5"/>
    <path class="cls-27" d="M31.44,29.52l0-.08a.46.46,0,0,1,.14-.19l-1-.39A1.72,1.72,0,0,0,31.44,29.52Z"/>
    <path class="cls-28" d="M30.37,28.9l-.14-.06-.24-.1a.08.08,0,0,0-.06.15l1.1.46h.06a.08.08,0,0,0,0-.15Z"/>
    <path class="cls-29" d="M30.83,29.09a1.72,1.72,0,0,0,.27.24l0,0a.08.08,0,0,0,0-.11Z"/>
    <g>
      <path class="cls-30" d="M29,28a.48.48,0,0,0-.15.1h0l.45.19,0,.19-.15.12-.45-.19h0A.48.48,0,1,0,29,28Z"/>
      <path class="cls-30" d="M32.08,29.17a.48.48,0,1,0,.15.79h0v0l-.45-.19,0-.19.15-.12.45.19h0A.48.48,0,0,0,32.08,29.17Z"/>
    </g>
    <path class="cls-31" d="M31.71,29.17a.48.48,0,0,0-.26.26l0,.08a1.74,1.74,0,0,0,.34.11v-.06l.15-.12.45.19h0a.48.48,0,0,0-.67-.45Z"/>
    <path class="cls-32" d="M29.44,28.78a.48.48,0,0,1-.63-.26h0l-.11,0h0a.48.48,0,0,0,.92.19A.48.48,0,0,1,29.44,28.78Z"/>
  </g>
  <path class="cls-11" d="M32,31.6c-.15-.37-.4-1-.4-1a13.46,13.46,0,0,1,1.27-.5.53.53,0,0,1,.6.21c.34.53-.35.93-1.48,1.28"/>
  <path class="cls-7" d="M31.88,30.49l.42,1L32,31.6c-.15-.37-.4-1-.4-1Z"/>
</svg>
