<svg xmlns="http://www.w3.org/2000/svg" viewBox="0 0 5000 5000"><defs><style>.cls-1{isolation:isolate;}.cls-2{fill:#ededed;}.cls-3{fill:#86d8fc;}.cls-4{fill:#394851;}.cls-5{fill:#3f3f3f;}.cls-6{fill:#d8d8d8;}.cls-7{fill:#fff;}.cls-8{fill:#e7f5f7;}.cls-9{fill:#e4dbd4;}.cls-10{font-size:76px;font-family:Montserrat-Regular, Montserrat;}.cls-10,.cls-19{fill:#ffa800;}.cls-11{letter-spacing:-0.05em;}.cls-12{letter-spacing:-0.01em;}.cls-13{letter-spacing:-0.02em;}.cls-14{letter-spacing:0em;}.cls-15{fill:none;stroke:#ffa800;stroke-miterlimit:10;stroke-width:6px;}.cls-16{fill:#b7b7b7;}.cls-17{opacity:0.41;mix-blend-mode:multiply;}.cls-18{fill:#c4c4c4;}</style></defs><title>tracking</title><g class="cls-1"><g id="Layer_1" data-name="Layer 1"><path class="cls-2" d="M1589.45,3495.23l4.75-394s-56.1-724.23-77.26-1125.8c0,0-11.35-165.87,24.7-302.72,0,0,69.36-331.1,66.42-351.08,0,0,37-175.34,37.93-276.42,0,0,16.65-49-15.11-155,0,0-40.43-131.36,13.68-189.5,0,0,57.17-56.87,147.85,1.21,0,0,78.93,36.07,133.77,164.63,0,0,149.3,341,86.87,640.39,0,0,3.94,251.48,15.33,288.51l1158.11-1733S3270.07-22,3378.26,25.23c0,0,94.94,36.7,97.09,163.34,0,0,10.71,45.57-92.18,170.16L2576.46,1584l691.63,1010.12s-83.63,186.48-366.05,388.41c0,0-183.89,143.5-330.56,171.26l7.59,352.06Z"/><rect class="cls-3" x="1949.53" y="2949.79" width="270.53" height="1202.93" transform="matrix(0, 1, -1, 0, 5639.52, 1472.38)"/><rect class="cls-4" x="1397.04" y="3499.41" width="1373.23" height="1475.62" transform="translate(6324.34 2160.63) rotate(90.1)"/><rect class="cls-5" x="1882.6" y="278.27" width="1486.26" height="2623.22" rx="51.74" ry="51.74"/><rect class="cls-6" x="1925.44" y="565.03" width="1401.61" height="2042.09"/><path class="cls-7" d="M2822.44,447.73H2431.82a22,22,0,0,1-22-22h0a22,22,0,0,1,22-22h390.61a22,22,0,0,1,22,22h0A22,22,0,0,1,2822.44,447.73Z"/><rect class="cls-8" x="2444.27" y="2700.15" width="363.8" height="110.69" rx="10.15" ry="10.15"/><path class="cls-9" d="M2364.15,564.15c-.11.3-.27.61-.38.91h196.7l.34-.91Z"/><path class="cls-2" d="M3249.09,2229.47l-.79-.77c-65.44-63.68-66.87-169.33-3.19-234.76L3375.42,1860c63.68-65.44,169.33-66.87,234.76-3.19l.79.77c65.44,63.68,66.87,169.33,3.19,234.76l-130.31,133.9C3420.17,2291.72,3314.52,2293.15,3249.09,2229.47Z"/><text class="cls-10" transform="translate(2058 1200)"><tspan class="cls-11">V</tspan><tspan x="48.34" y="0">ehicle has en</tspan><tspan class="cls-12" x="547.19" y="0">t</tspan><tspan x="577.67" y="0">ered the ga</tspan><tspan class="cls-13" x="1014.06" y="0">r</tspan><tspan class="cls-14" x="1042.41" y="0">age</tspan></text><circle class="cls-15" cx="3229.5" cy="995.5" r="52.5"/><path class="cls-2" d="M3215.89,1314.29l-.79-.77c-65.44-63.68-66.87-169.33-3.19-234.76l130.31-133.9c63.68-65.44,169.33-66.87,234.76-3.19l.79.77c65.44,63.68,66.87,169.33,3.19,234.76l-130.31,133.9C3387,1376.54,3281.33,1378,3215.89,1314.29Z"/><rect class="cls-16" x="1996" y="2260" width="274" height="274"/><path class="cls-2" d="M3230.44,1774l-.79-.77c-65.44-63.68-66.87-169.33-3.19-234.76l130.31-133.9c63.68-65.44,169.33-66.87,234.76-3.19l.79.77c65.44,63.68,66.87,169.33,3.19,234.76l-130.31,133.9C3401.51,1836.2,3295.87,1837.64,3230.44,1774Z"/><rect class="cls-16" x="2377" y="2269" width="768" height="68"/><rect class="cls-16" x="2377" y="2409" width="384" height="68"/><g class="cls-17"><rect class="cls-18" x="1932" y="2367" width="1402" height="226"/></g><rect class="cls-7" x="1925" y="2381" width="1402" height="226"/><g class="cls-17"><rect class="cls-18" x="1939" y="565" width="1402" height="226"/><rect class="cls-18" x="1932" y="579" width="1402" height="226"/></g><g class="cls-17"><rect class="cls-18" x="1932" y="551" width="1402" height="226"/></g><rect class="cls-7" x="1925" y="565" width="1402" height="226"/><rect class="cls-16" x="2021" y="2448" width="89" height="89"/><rect class="cls-16" x="2295" y="2448" width="89" height="89"/><rect class="cls-16" x="2581" y="2448" width="89" height="89"/><rect class="cls-16" x="2377" y="638" width="554" height="66" rx="33" ry="33"/><rect class="cls-19" x="2843" y="2448" width="89" height="89"/><rect class="cls-16" x="3123" y="2448" width="89" height="89"/><circle class="cls-19" cx="2030.5" cy="995.5" r="52.5"/><circle class="cls-19" cx="2320.5" cy="995.5" r="52.5"/><circle class="cls-15" cx="2627.5" cy="995.5" r="52.5"/><circle class="cls-15" cx="2934.5" cy="995.5" r="52.5"/><rect class="cls-19" x="2079" y="976" width="193" height="39"/><rect class="cls-15" x="2367" y="976" width="208" height="39"/><rect class="cls-15" x="2680" y="976" width="202" height="39"/><rect class="cls-15" x="2987" y="976" width="192" height="39"/><rect class="cls-6" x="2569" y="979" width="26" height="33"/><rect class="cls-6" x="2669" y="979" width="26" height="33"/><rect class="cls-6" x="2875" y="979" width="26" height="33"/><rect class="cls-6" x="3165" y="979" width="26" height="33"/><rect class="cls-6" x="2975" y="979" width="26" height="33"/><rect class="cls-16" x="1996" y="1447" width="274" height="274"/><rect class="cls-16" x="1996" y="1850" width="274" height="274"/><rect class="cls-16" x="2377" y="1469" width="768" height="68"/><rect class="cls-16" x="2377" y="1609" width="384" height="68"/><rect class="cls-16" x="2377" y="1858" width="768" height="68"/><rect class="cls-16" x="2377" y="1998" width="384" height="68"/></g></g></svg>