<svg id="Layer_1" data-name="Layer 1" xmlns="http://www.w3.org/2000/svg" viewBox="0 0 100 100">
  <defs>
    <style>
      .cls-1 {
        fill: #ececf0;
      }

      .cls-2 {
        fill: #b2b3b6;
        opacity: 0.4;
      }

      .cls-3 {
        fill: #fff;
      }

      .cls-4 {
        fill: #6dba1a;
      }

      .cls-5 {
        fill: #00959d;
      }

      .cls-6 {
        fill: #00b7c5;
      }

      .cls-7 {
        fill: #b5b3b3;
      }

      .cls-8 {
        fill: #eceec5;
      }

      .cls-9 {
        fill: #d2d2d2;
      }

      .cls-10 {
        fill: #dddde0;
      }

      .cls-11 {
        opacity: 0.18;
      }

      .cls-12 {
        fill: #7d7a76;
      }

      .cls-13 {
        fill: #94928d;
      }

      .cls-14 {
        fill: #cac1a6;
      }

      .cls-15 {
        fill: #f3f3f3;
        opacity: 0.2;
        isolation: isolate;
      }
    </style>
  </defs>
  <title>final_1000</title>
  <g>
    <path class="cls-1" d="M79.1,24.1c-3.18,0-5.78-1.19-5.78-2.64a2.47,2.47,0,0,1,2.22-2.64,2.48,2.48,0,0,0,2.22-2.66c0-1.46-4-2.66-8.89-2.66S60,12.29,60,10.83,57.6,8.17,54.7,8.17,49.43,7,49.43,5.5,44.67,2.84,38.86,2.84,28.29,4,28.29,5.5s-2.75,2.66-6.11,2.66-6.11,1.2-6.11,2.66,3,2.66,6.56,2.66,6.56,1.19,6.56,2.65-1.48,2.65-3.28,2.65-3.28,1.2-3.28,2.66-1.48,2.66-3.28,2.66-3.28,1.2-3.28,2.66,10.35,2.66,23,2.66H61.88c12.65,0,23-1.2,23-2.66S82.28,24.1,79.1,24.1ZM38.49,10.75c0,1.29-1.7,2.34-3.79,2.34s-3.8-1.06-3.8-2.36,1.71-2.35,3.79-2.34S38.48,9.46,38.49,10.75Z"/>
    <path class="cls-1" d="M29.81,70.84c-2.15,0-3.91,1.48-3.91,3.3a3.58,3.58,0,0,1-3.79,3.3,3.58,3.58,0,0,0-3.79,3.3c0,1.81,9.9,3.3,22,3.3h1.36c12.1,0,22-1.48,22-3.3s3.91-3.3,8.69-3.3S81,75.95,81,74.13s2.77-3.3,6.16-3.3,6.16-1.48,6.16-3.3-2.11-3.3-4.69-3.3S84,62.76,84,61s-9.9-3.28-22-3.28H44.43c-12.1,0-22,1.48-22,3.3s2.54,3.3,5.65,3.3,5.65,1.48,5.65,3.28S32,70.84,29.81,70.84Z"/>
    <path class="cls-1" d="M98.46,7.12a.76.76,0,0,0-.79-.71.8.8,0,0,1-.79-.79.72.72,0,1,0-1.43,0,.8.8,0,0,1-.79.79.76.76,0,0,0-.79.71.76.76,0,0,0,.79.71.8.8,0,0,1,.79.79.72.72,0,1,0,1.43,0,.8.8,0,0,1,.79-.79A.76.76,0,0,0,98.46,7.12Z"/>
    <path class="cls-1" d="M19.82,90.38a.62.62,0,0,0-.65-.58.65.65,0,0,1-.65-.65.59.59,0,1,0-1.17,0,.65.65,0,0,1-.65.65.59.59,0,1,0,0,1.17.65.65,0,0,1,.65.65.59.59,0,1,0,1.17,0,.65.65,0,0,1,.65-.65A.62.62,0,0,0,19.82,90.38Z"/>
    <path class="cls-1" d="M94.88,96.12a.62.62,0,0,0-.25-.83.65.65,0,0,1-.22-.89.59.59,0,1,0-1-.61.65.65,0,0,1-.89.22.59.59,0,1,0-.61,1,.65.65,0,0,1,.22.89.59.59,0,1,0,1,.61.65.65,0,0,1,.89-.22A.62.62,0,0,0,94.88,96.12Z"/>
    <circle class="cls-1" cx="3.6" cy="69.24" r="0.87"/>
    <circle class="cls-1" cx="1.64" cy="32.48" r="1.96"/>
  </g>
  <rect class="cls-2" x="59.35" y="35.23" width="36.48" height="29.77" transform="translate(0.9 101.6) rotate(-66.73)"/>
  <path class="cls-2" d="M70.79,24.15H63.89A1.89,1.89,0,0,0,62,22.67H56.19a2.92,2.92,0,0,0-5.47,0H44.86A1.89,1.89,0,0,0,43,24.15H36.11a1.25,1.25,0,0,0-1.27,1.23V70.32a1.27,1.27,0,0,0,1.27,1.27H70.79a1.27,1.27,0,0,0,1.27-1.27V25.38A1.25,1.25,0,0,0,70.79,24.15Z"/>
  <rect class="cls-3" x="58.27" y="33.56" width="36.48" height="29.77" transform="translate(1.79 99.6) rotate(-66.73)"/>
  <path class="cls-1" d="M90.53,41.66a4.27,4.27,0,0,1-1.94-.56L73.54,34.63c-1-.43-1.79-.89-1.74-1a4.27,4.27,0,0,1,1.94.56l15.05,6.47C89.8,41.08,90.58,41.54,90.53,41.66Z"/>
  <path class="cls-1" d="M83.75,39.73a4.27,4.27,0,0,1-1.94-.56l-8.64-3.71c-1-.43-1.79-.89-1.74-1a4.27,4.27,0,0,1,1.94.56L82,38.71C83,39.15,83.8,39.61,83.75,39.73Z"/>
  <path class="cls-1" d="M80.44,39.31a4.27,4.27,0,0,1-1.94-.56L72.82,36.3c-1-.43-1.79-.89-1.74-1a4.27,4.27,0,0,1,1.94.56l5.69,2.45C79.71,38.73,80.5,39.18,80.44,39.31Z"/>
  <path class="cls-1" d="M88.76,45.77a4.27,4.27,0,0,1-1.94-.56L71.77,38.74c-1-.43-1.79-.89-1.74-1a4.27,4.27,0,0,1,1.94.56L87,44.75C88,45.19,88.81,45.65,88.76,45.77Z"/>
  <path class="cls-1" d="M82,43.84A4.27,4.27,0,0,1,80,43.28l-8.64-3.71c-1-.43-1.79-.89-1.74-1a4.27,4.27,0,0,1,1.94.56l8.64,3.71C81.26,43.26,82,43.72,82,43.84Z"/>
  <path class="cls-1" d="M78.68,43.42a4.27,4.27,0,0,1-1.94-.56l-5.69-2.45c-1-.43-1.79-.89-1.74-1a4.27,4.27,0,0,1,1.94.56l5.69,2.45C77.95,42.84,78.73,43.29,78.68,43.42Z"/>
  <path class="cls-1" d="M86.71,50.54A4.27,4.27,0,0,1,84.77,50L69.72,43.51c-1-.43-1.79-.89-1.74-1a4.27,4.27,0,0,1,1.94.56L85,49.52C86,50,86.76,50.42,86.71,50.54Z"/>
  <path class="cls-1" d="M79.93,48.61A4.27,4.27,0,0,1,78,48.05l-8.64-3.71c-1-.43-1.79-.89-1.74-1a4.27,4.27,0,0,1,1.94.56l8.64,3.71C79.2,48,80,48.49,79.93,48.61Z"/>
  <path class="cls-1" d="M76.62,48.19a4.27,4.27,0,0,1-1.94-.56L69,45.18c-1-.43-1.79-.89-1.74-1a4.27,4.27,0,0,1,1.94.56l5.69,2.45C75.89,47.61,76.68,48.06,76.62,48.19Z"/>
  <path class="cls-1" d="M82.24,60.93a4.27,4.27,0,0,1-1.94-.56L65.25,53.9c-1-.43-1.79-.89-1.74-1a4.27,4.27,0,0,1,1.94.56L80.5,59.92C81.51,60.35,82.29,60.81,82.24,60.93Z"/>
  <path class="cls-1" d="M75.46,59a4.27,4.27,0,0,1-1.94-.56l-8.64-3.71c-1-.43-1.79-.89-1.74-1a4.27,4.27,0,0,1,1.94.56L73.72,58C74.74,58.42,75.52,58.88,75.46,59Z"/>
  <path class="cls-1" d="M72.16,58.58A4.27,4.27,0,0,1,70.22,58l-5.69-2.45c-1-.43-1.79-.89-1.74-1a4.27,4.27,0,0,1,1.94.56l5.69,2.45C71.43,58,72.21,58.46,72.16,58.58Z"/>
  <path class="cls-1" d="M85,54.61A4.27,4.27,0,0,1,83,54.05L68,47.58c-1-.43-1.79-.89-1.74-1a4.27,4.27,0,0,1,1.94.56L83.22,53.6C84.23,54,85,54.49,85,54.61Z"/>
  <path class="cls-1" d="M78.18,52.69a4.27,4.27,0,0,1-1.94-.56l-8.64-3.71c-1-.43-1.79-.89-1.74-1a4.27,4.27,0,0,1,1.94.56l8.64,3.71C77.45,52.1,78.23,52.56,78.18,52.69Z"/>
  <path class="cls-1" d="M77.05,55.31a4.27,4.27,0,0,1-1.94-.56L66.48,51c-1-.43-1.79-.89-1.74-1a4.27,4.27,0,0,1,1.94.56l8.64,3.71C76.33,54.72,77.11,55.18,77.05,55.31Z"/>
  <path class="cls-1" d="M74.87,52.26a4.27,4.27,0,0,1-1.94-.56l-5.69-2.45c-1-.43-1.79-.89-1.74-1a4.27,4.27,0,0,1,1.94.56l5.69,2.45C74.14,51.68,74.93,52.14,74.87,52.26Z"/>
  <path class="cls-1" d="M72.89,52.46A4.27,4.27,0,0,1,71,51.9l-4.09-1.76c-1-.43-1.79-.89-1.74-1a4.27,4.27,0,0,1,1.94.56l4.09,1.76C72.16,51.88,72.95,52.34,72.89,52.46Z"/>
  <polygon class="cls-4" points="87.7 42.49 88.22 43.34 90.03 42.73 88.02 43.82 87.7 42.49"/>
  <polygon class="cls-4" points="79.55 61.47 80.06 62.31 81.87 61.7 79.86 62.79 79.55 61.47"/>
  <polygon class="cls-4" points="83.78 51.62 84.3 52.46 86.1 51.85 84.1 52.94 83.78 51.62"/>
  <rect class="cls-5" x="34.1" y="23.41" width="37.23" height="47.44" rx="1.27" ry="1.27"/>
  <path class="cls-6" d="M71.33,68a1.25,1.25,0,0,1-1.27,1.23H35.37A1.25,1.25,0,0,1,34.1,68V24.64a1.25,1.25,0,0,1,1.27-1.23H70.06a1.25,1.25,0,0,1,1.27,1.23Z"/>
  <rect class="cls-3" x="36.26" y="25.98" width="32.91" height="40.33"/>
  <g>
    <path class="cls-7" d="M63.19,23.81a1.88,1.88,0,0,0-1.88-1.88H44.12a1.88,1.88,0,0,0-1.88,1.88v3.32h21Z"/>
    <circle class="cls-7" cx="52.71" cy="22.95" r="2.92"/>
    <circle class="cls-8" cx="52.71" cy="22.05" r="0.9"/>
    <rect class="cls-9" x="42.23" y="24.82" width="20.96" height="2.31"/>
  </g>
  <path class="cls-1" d="M63.42,34.72c0,.15-.9.27-2,.27H42.88c-1.1,0-2-.12-2-.27s.9-.27,2-.27H61.42C62.52,34.44,63.42,34.57,63.42,34.72Z"/>
  <path class="cls-1" d="M55.69,35.72c0,.15-.9.27-2,.27H42.88c-1.1,0-2-.12-2-.27s.9-.27,2-.27H53.69C54.79,35.44,55.69,35.57,55.69,35.72Z"/>
  <path class="cls-1" d="M52.15,36.73c0,.15-.9.27-2,.27H42.88c-1.1,0-2-.12-2-.27s.9-.27,2-.27h7.27C51.25,36.46,52.15,36.58,52.15,36.73Z"/>
  <path class="cls-1" d="M63.57,41.64c0,.23-.9.43-2,.43H47.67c-1.1,0-2-.19-2-.43s.9-.43,2-.43h13.9C62.67,41.21,63.57,41.41,63.57,41.64Z"/>
  <path class="cls-1" d="M63.57,45.93c0,.23-.9.43-2,.43H47.67c-1.1,0-2-.19-2-.43s.9-.43,2-.43h13.9C62.67,45.5,63.57,45.69,63.57,45.93Z"/>
  <path class="cls-1" d="M63.57,50.29c0,.23-.9.43-2,.43H47.67c-1.1,0-2-.19-2-.43s.9-.43,2-.43h13.9C62.67,49.86,63.57,50.05,63.57,50.29Z"/>
  <path class="cls-1" d="M63.57,54.36c0,.23-.9.43-2,.43H47.67c-1.1,0-2-.19-2-.43s.9-.43,2-.43h13.9C62.67,53.93,63.57,54.12,63.57,54.36Z"/>
  <path class="cls-1" d="M43.89,40.1v2.67H41.22V40.1h2.67m.34-.34H40.88v3.35h3.35V39.76Z"/>
  <path class="cls-1" d="M43.89,44.44v2.67H41.22V44.44h2.67m.34-.34H40.88v3.35h3.35V44.1Z"/>
  <path class="cls-1" d="M43.89,48.78v2.67H41.22V48.78h2.67m.34-.34H40.88v3.35h3.35V48.44Z"/>
  <path class="cls-1" d="M43.89,53.17v2.67H41.22V53.17h2.67m.34-.34H40.88v3.35h3.35V52.83Z"/>
  <polygon class="cls-4" points="41.47 40.77 42.56 41.54 44.48 39.81 42.57 42.25 41.47 40.77"/>
  <polygon class="cls-4" points="41.47 44.77 42.56 45.54 44.48 43.82 42.57 46.25 41.47 44.77"/>
  <path class="cls-10" d="M36.26,56.41v9.85h4.79C40.84,66.27,36.55,61.36,36.26,56.41Z"/>
  <path class="cls-1" d="M41.66,61.61a8.88,8.88,0,0,1-3.24-1.67,5.91,5.91,0,0,1-2.16-4.21v.64c.29,4.95,4.58,9.89,4.79,9.89a1.58,1.58,0,0,1-.33-1A13.78,13.78,0,0,1,41.66,61.61Z"/>
  <g class="cls-11">
    <path class="cls-12" d="M35.69,72.47,37,71.32l.2-.17h0l.57-.51L38.5,70l2.29-2,.21-.18,1.29-1.14h0L44,65.1a4.12,4.12,0,0,1-2.85-3.23L39.45,63.4l-1.3,1.15L34.92,67.4l-.57.51-3.22,2.85-1.3,1.15-.43.38a4.12,4.12,0,0,1,2.85,3.23l.43-.38.72-.64L34,74l.17-.15"/>
    <path class="cls-13" d="M31,73.74A.51.51,0,0,1,31,73l10.15-9a.51.51,0,1,1,.68.76l-10.15,9A.51.51,0,0,1,31,73.74Z"/>
    <g>
      <path class="cls-14" d="M32.16,72.71a4.7,4.7,0,0,0-8.14,4,.34.34,0,0,0,.56.19L27.89,74l2.07.69.43,2.14-3.32,2.93a.34.34,0,0,0,.12.58,4.7,4.7,0,0,0,5-7.59Z"/>
      <path class="cls-14" d="M36.15,70.15a.71.71,0,0,1-1-.06h0a.71.71,0,0,1,.06-1l2.23-2a.71.71,0,0,1,1,.06h0a.71.71,0,0,1-.06,1Z"/>
      <path class="cls-14" d="M41.52,64.44a4.71,4.71,0,0,0,6.64.41l.17-.16,0,0,.15-.15,0,0,.15-.18,0,0,.13-.16h0a4.66,4.66,0,0,0,.73-1.54,4.75,4.75,0,0,0,.08-2.09.34.34,0,0,0-.56-.19l-3.32,2.93-2.07-.69-.43-2.14,3.32-2.93a.34.34,0,0,0-.12-.58,4.75,4.75,0,0,0-2.08-.18,4.66,4.66,0,0,0-1.62.54h0l-.18.1,0,0-.2.13h0l-.17.13,0,0-.18.15A4.71,4.71,0,0,0,41.52,64.44Z"/>
    </g>
    <g>
      <path class="cls-15" d="M32.16,72.71a4.67,4.67,0,0,0-2-1.32A5.15,5.15,0,0,0,25.54,76L27.89,74l2.07.69.43,2.14-3.32,2.93a.34.34,0,0,0-.07.42l.14.14.05,0a4.7,4.7,0,0,0,5-7.59Z"/>
      <path class="cls-15" d="M48.38,64.65l.15-.15,0,0,.15-.18,0,0,.13-.16h0a4.66,4.66,0,0,0,.73-1.54,4.75,4.75,0,0,0,.08-2.09.34.34,0,0,0-.56-.19l-3.32,2.93-2.07-.69-.43-2.14,3.32-2.93a.34.34,0,0,0,.11-.31A4.95,4.95,0,0,0,43,65.35a5,5,0,0,0,.37.38,4.71,4.71,0,0,0,4.79-.87l.17-.16Z"/>
    </g>
  </g>
  <g>
    <path class="cls-12" d="M35.34,72.09l1.3-1.15.2-.17h0l.57-.51.72-.64,2.29-2,.21-.18,1.29-1.14h0l1.74-1.54a4.12,4.12,0,0,1-2.85-3.23L39.09,63l-1.3,1.15L34.57,67l-.57.51-3.22,2.85-1.3,1.15L29,71.9a4.12,4.12,0,0,1,2.85,3.23l.43-.38.72-.64.59-.52.17-.15"/>
    <path class="cls-13" d="M30.63,73.36a.51.51,0,0,1,0-.72l10.15-9a.51.51,0,0,1,.68.76l-10.15,9A.51.51,0,0,1,30.63,73.36Z"/>
    <g>
      <path class="cls-14" d="M31.81,72.33a4.7,4.7,0,0,0-8.14,4,.34.34,0,0,0,.56.19l3.32-2.93,2.07.69L30,76.41l-3.32,2.93a.34.34,0,0,0,.12.58,4.7,4.7,0,0,0,5-7.59Z"/>
      <path class="cls-14" d="M35.8,69.76a.71.71,0,0,1-1-.06h0a.71.71,0,0,1,.06-1l2.23-2a.71.71,0,0,1,1,.06h0a.71.71,0,0,1-.06,1Z"/>
      <path class="cls-14" d="M41.17,64.06a4.71,4.71,0,0,0,6.64.41l.17-.16,0,0,.15-.15,0,0,.15-.18,0,0,.13-.16h0a4.66,4.66,0,0,0,.73-1.54,4.75,4.75,0,0,0,.08-2.09.34.34,0,0,0-.56-.19l-3.32,2.93-2.07-.69L42.94,60l3.32-2.93a.34.34,0,0,0-.12-.58,4.75,4.75,0,0,0-2.08-.18,4.66,4.66,0,0,0-1.62.54h0l-.18.1,0,0-.2.13h0l-.17.13,0,0-.18.15A4.71,4.71,0,0,0,41.17,64.06Z"/>
    </g>
    <g>
      <path class="cls-15" d="M31.81,72.33a4.67,4.67,0,0,0-2-1.32,5.15,5.15,0,0,0-4.66,4.66l2.36-2.08,2.07.69L30,76.41l-3.32,2.93a.34.34,0,0,0-.07.42l.14.14.05,0a4.7,4.7,0,0,0,5-7.59Z"/>
      <path class="cls-15" d="M48,64.27l.15-.15,0,0,.15-.18,0,0,.13-.16h0a4.66,4.66,0,0,0,.73-1.54,4.75,4.75,0,0,0,.08-2.09.34.34,0,0,0-.56-.19l-3.32,2.93-2.07-.69L42.94,60l3.32-2.93a.34.34,0,0,0,.11-.31A4.95,4.95,0,0,0,42.65,65a5,5,0,0,0,.37.38,4.71,4.71,0,0,0,4.79-.87l.17-.16Z"/>
    </g>
  </g>
</svg>
