<svg id="Flat" height="512" viewBox="0 0 64 64" width="512" xmlns="http://www.w3.org/2000/svg"><path d="m54.5 34.5a5.12 5.12 0 0 1 -1.5-3.621v-13.879c0-7.732-4-15-13-15s-13 7.268-13 15v13.879a5.124 5.124 0 0 1 -1.5 3.621 5.12 5.12 0 0 0 -1.5 3.621v2.879h32v-2.879a5.124 5.124 0 0 0 -1.5-3.621z" fill="#42210b"/><path d="m27.5 34.5a5.124 5.124 0 0 0 1.5-3.621v-13.879c0-7.435 3.713-14.422 12-14.949-.331-.021-.655-.051-1-.051-9 0-13 7.268-13 15v13.879a5.124 5.124 0 0 1 -1.5 3.621 5.12 5.12 0 0 0 -1.5 3.621v2.879h2v-2.879a5.12 5.12 0 0 1 1.5-3.621z" fill="#724118"/><path d="m55.827 40.046-8.185-3.093a4 4 0 0 1 -2.642-3.762v-4.191h-10v4.191a4 4 0 0 1 -2.643 3.762l-8.184 3.093a8 8 0 0 0 -5.173 7.483v14.471h42v-14.471a8 8 0 0 0 -5.173-7.483z" fill="#00acc0"/><path d="m21 47.529a8 8 0 0 1 5.173-7.483l8.184-3.093a4 4 0 0 0 2.643-3.762v-4.191h-2v4.191a4 4 0 0 1 -2.643 3.762l-8.184 3.093a8 8 0 0 0 -5.173 7.483v14.471h2z" fill="#25c6da"/><path d="m40 42c3.415 0 6.255-4.049 6.872-5.435a3.993 3.993 0 0 1 -1.872-3.374v-4.191h-10v4.191a3.993 3.993 0 0 1 -1.872 3.374c.617 1.386 3.457 5.435 6.872 5.435z" fill="#f4cda5"/><path d="m33.128 36.565a7.021 7.021 0 0 0 .38.709l.849-.321a4 4 0 0 0 2.643-3.762v-4.191h-2v4.191a3.993 3.993 0 0 1 -1.872 3.374z" fill="#fadcb4"/><path d="m31 37.466-2 .756v8.778h2z" fill="#754c24"/><path d="m29 38.977 2-.755v-.756l-2 .756z" fill="#a67c52"/><path d="m51 38.222-2-.756v9.534h2z" fill="#754c24"/><rect fill="#f4cda5" height="6" rx="3" width="26" x="27" y="17"/><path d="m45 28h-10v3.142a6.251 6.251 0 0 0 5 2.858 6.253 6.253 0 0 0 5-2.857z" fill="#f2be97"/><path d="m50 17v5.2c0 5.94-6.67 10.8-10 10.8-1.66 0-4.16-1.22-6.25-3.17a10.853 10.853 0 0 1 -3.75-7.63v-5.2c10-1 14-6 14-6a14.934 14.934 0 0 0 6 6z" fill="#fadcb4"/><path d="m32 22v-5.269c-.64.106-1.3.2-2 .269v5.2a10.853 10.853 0 0 0 3.75 7.63c2.09 1.95 4.59 3.17 6.25 3.17a11.106 11.106 0 0 1 -8-11z" fill="#f9e5cf"/><path d="m40 29a5.8 5.8 0 0 1 -3.627-1.227l1.254-1.558a4.018 4.018 0 0 0 4.746 0l1.254 1.558a5.8 5.8 0 0 1 -3.627 1.227z" fill="#eaa18c"/><path d="m35 21c-1.1 0-2-.673-2-1.5s.9-1.5 2-1.5 2 .673 2 1.5-.9 1.5-2 1.5z" fill="#42210b"/><path d="m45 21c-1.1 0-2-.673-2-1.5s.9-1.5 2-1.5 2 .673 2 1.5-.9 1.5-2 1.5z" fill="#42210b"/><path d="m20.3 58.75-3.62 1.69-6.51-13.96a7 7 0 0 1 -6.42-4.29 7.023 7.023 0 0 1 .84-7.67l2.79 5.98 3.62-1.69-2.79-5.98a7.017 7.017 0 0 1 6.42 4.29 7.023 7.023 0 0 1 -.84 7.67z" fill="#754c24"/><path d="m53 60.37v1.63h-26v-1.63a8.284 8.284 0 0 1 0-10.74v-2.63a1 1 0 0 1 1-1h24a1 1 0 0 1 1 1v2.63a8.284 8.284 0 0 1 0 10.74z" fill="#754c24"/><path d="m29 48h2v2h-2z" fill="#36474f"/><path d="m49 48h2v2h-2z" fill="#36474f"/><path d="m14.86 52.365h5a2 2 0 0 1 2 2v4a2 2 0 0 1 -2 2h-5a4 4 0 0 1 -4-4 4 4 0 0 1 4-4z" fill="#f4cda5" transform="matrix(.906 -.423 .423 .906 -22.288 12.195)"/></svg>